<svg width="32" height="32" viewBox="0 0 32 32" fill="none" xmlns="http://www.w3.org/2000/svg">
<path d="M12.7563 24.216C12.1483 24.216 11.6763 24.048 11.3403 23.712C11.0203 23.376 10.8603 22.888 10.8603 22.248V9.024C10.8603 8.4 11.0283 7.92 11.3643 7.584C11.7003 7.248 12.1803 7.08 12.8043 7.08H21.0123C21.4923 7.08 21.8523 7.208 22.0923 7.464C22.3483 7.704 22.4763 8.056 22.4763 8.52C22.4763 9 22.3483 9.368 22.0923 9.624C21.8523 9.864 21.4923 9.984 21.0123 9.984H14.5803V14.112H20.4843C20.9643 14.112 21.3323 14.24 21.5883 14.496C21.8443 14.736 21.9723 15.088 21.9723 15.552C21.9723 16.016 21.8443 16.376 21.5883 16.632C21.3323 16.888 20.9643 17.016 20.4843 17.016H14.5803V22.248C14.5803 23.56 13.9723 24.216 12.7563 24.216Z" fill="#EF4444"/>
<rect x="0.5" y="0.5" width="31" height="31" rx="15.5" stroke="url(#paint0_linear_29_3)"/>
<defs>
<linearGradient id="paint0_linear_29_3" x1="16" y1="0" x2="16" y2="36.5" gradientUnits="userSpaceOnUse">
<stop stop-color="#EF4444"/>
<stop offset="1" stop-color="#642F2F"/>
</linearGradient>
</defs>
</svg>
